<svg width="20" height="20" viewBox="0 0 20 20" fill="none" xmlns="http://www.w3.org/2000/svg">
<path id="icon-earth" fill-rule="evenodd" clip-rule="evenodd" d="M10 0C4.47686 0 0 4.47763 0 9.99951C0 15.5224 4.47686 20 10 20C15.5231 20 20 15.5224 20 9.99951C20 4.47763 15.5231 0 10 0ZM6.81871 2.49428C6.96018 2.43436 7.1321 2.49428 7.19203 2.63673C7.31483 2.92947 7.06038 3.28312 5.9866 4.11912C4.62891 5.17516 4.39509 6.06519 4.65838 7.8079C4.92068 9.54964 5.94927 9.60171 6.59374 10.9191C7.2382 12.2364 6.6517 13.3563 7.63608 15.6207C8.06736 16.5244 8.62242 17.0893 8.85034 17.5432C8.97315 17.7868 8.76389 18.0609 8.49667 18.0108C4.71045 17.3044 1.8418 13.9909 1.8418 9.99956C1.8418 6.62415 3.89504 3.73501 6.81871 2.49428ZM10.7526 17.1758C10.6927 16.4881 11.2271 15.0883 12.2724 13.9998C14.1616 12.0518 12.7204 11.0429 10.8931 10.7953C9.0658 10.5478 7.79849 11.2777 7.34952 10.0605C6.90056 8.84435 7.70811 8.32173 7.97925 8.2343C8.2504 8.14687 8.77206 7.861 9.61694 8.8748C9.97061 9.22747 10.454 9.28641 10.4422 8.84238C10.4314 8.39934 9.88022 7.5044 10.4785 6.80005C11.0758 6.09667 12.4424 5.744 12.3815 4.69975C12.3196 3.65549 11.4334 3.21834 10.3793 3.4934C9.32614 3.76748 8.75732 3.97279 8.45867 3.07C8.39187 2.86861 8.33587 2.67116 8.28871 2.48549C8.22878 2.24776 8.38204 2.0061 8.6247 1.96385C9.0717 1.88527 9.53048 1.84204 10.0001 1.84204C13.3177 1.84204 16.1726 3.82249 17.4478 6.66546C17.8771 7.62425 17.3318 8.75004 16.3082 8.98581C16.3023 8.98777 16.2954 8.98876 16.2875 8.99072C15.0369 9.27364 14.4396 9.77367 15.8572 10.9761C16.1962 11.201 16.5616 11.4211 16.9025 11.6795C17.4713 12.1107 17.6609 12.8868 17.3515 13.5302C16.2905 15.7347 14.2667 17.385 11.8244 17.943C11.3155 18.0589 10.8037 17.6955 10.7526 17.1758Z" fill="#6F4D08"/>
</svg>
