<svg width="24" height="24" viewBox="0 0 24 24" fill="none" xmlns="http://www.w3.org/2000/svg">
<path fill-rule="evenodd" clip-rule="evenodd" d="M13.3449 21.492C12.5931 22.1725 11.4472 22.1683 10.6976 21.4856C7.14429 18.2425 4.38239 15.4606 1.80897 12.4741C-0.847978 9.83174 -0.578106 5.38088 2.61859 3.10592C4.45307 1.80017 6.93653 1.65638 8.95521 2.65967C10.1193 3.23799 10.9353 4.06554 11.4804 5.00811C11.7192 5.42242 12.32 5.41709 12.5599 5.00279C13.1436 3.99418 14.0389 3.11764 15.34 2.53718C17.0278 1.78526 19.0197 1.81934 20.6646 2.66073C24.5895 4.66729 25.004 9.77956 22.1532 12.6147C19.1643 16.0165 16.1689 18.9348 13.3449 21.492Z" fill="#6F4D08"/>
</svg>
